Coordinates
version=1
nRows=22
nColumns=32
inDegrees=yes

Units are S.I. units (second, meters, Newtons, ...)
If the header above contains a line with 'inDegrees', this indicates whether rotational values are in degrees (yes) or radians (no).

endheader
time	pelvis_tilt	pelvis_list	pelvis_rotation	pelvis_tx	pelvis_ty	pelvis_tz	hip_flexion_r	hip_adduction_r	hip_rotation_r	knee_angle_r	knee_adduction_r	med_cond_adduction_r	lat_cond_adduction_r	patella_r_constrained_knee_angle	ankle_angle_r	subtalar_angle_r	mtp_angle_r	hip_flexion_l	hip_adduction_l	hip_rotation_l	knee_angle_l	knee_adduction_l	med_cond_adduction_l	lat_cond_adduction_l	patella_l_constrained_knee_angle	ankle_angle_l	subtalar_angle_l	mtp_angle_l	lumbar_extension	lumbar_bending	lumbar_rotation
      0.00000000	     -2.59813754	      5.18542268	     -4.13418755	      0.24038588	      0.90308063	     -1.19587584	      2.94374342	    -28.36693902	    -31.58667616	     -5.86292422	      4.47146456	      0.00000000	      0.00000000	     -0.10232733	     -9.19155607	     10.38371897	      0.00000000	      1.18454012	    -14.17729385	    -38.79606474	     -4.59537518	      0.86364622	     -0.00000000	     -0.00000000	     -0.08020443	     -8.57386717	     15.17309359	     -0.00000000	    -13.39915187	     -4.65133858	     -2.96434962
      0.00500000	     -2.61421023	      5.06056350	     -4.06315417	      0.24041485	      0.90311504	     -1.19606048	      2.81483247	    -28.17664705	    -31.61541885	     -5.65610298	      4.48193157	      0.00000000	      0.00000000	     -0.09871762	     -9.32740553	     10.15855203	      0.00000000	      1.26668320	    -14.35500832	    -38.78147894	     -4.74657540	      0.85774136	     -0.00000000	     -0.00000000	     -0.08284337	     -8.43204785	     15.31095817	     -0.00000000	    -13.39574214	     -4.39635723	     -2.90689123
      0.01000000	     -2.69367582	      5.28671509	     -4.09628621	      0.24042437	      0.90294427	     -1.19611071	      2.96682583	    -28.48614893	    -31.54081235	     -5.74539011	      4.56169130	     -0.00000000	     -0.00000000	     -0.10027597	     -9.33650804	     10.11407653	      0.00000000	      1.35015491	    -14.03975897	    -38.78574059	     -4.65707188	      0.76919353	      0.00000000	      0.00000000	     -0.08128124	     -8.44073056	     15.27160426	      0.00000000	    -13.27402310	     -4.84457184	     -3.20732998
      0.01500000	     -2.69463240	      5.26138627	     -4.19592441	      0.24046503	      0.90293290	     -1.19586210	      3.13030710	    -28.49073913	    -31.62945182	     -5.98025219	      4.48181340	     -0.00000000	     -0.00000000	     -0.10437509	     -9.09895767	     10.62327379	      0.00000000	      1.24652437	    -14.06335172	    -38.80568925	     -4.52517358	      0.84041011	      0.00000000	      0.00000000	     -0.07897918	     -8.58346578	     15.07239471	     -0.00000000	    -13.25776567	     -4.67386212	     -2.83387760
      0.02000000	     -2.71107532	      5.23747080	     -4.10166154	      0.24052070	      0.90298334	     -1.19612018	      2.93286305	    -28.39635566	    -31.59317705	     -5.63667894	      4.54221496	     -0.00000000	     -0.00000000	     -0.09837861	     -9.35745138	     10.20418251	     -0.00000000	      1.33820183	    -14.10350710	    -38.79273468	     -4.62786754	      0.80408188	     -0.00000000	     -0.00000000	     -0.08077153	     -8.51889956	     15.24938737	      0.00000000	    -13.23673960	     -4.74588892	     -3.16062384
      0.02500000	     -2.76777326	      5.35260594	     -4.17237959	      0.24049323	      0.90286805	     -1.19605772	      3.11103156	    -28.53965714	    -31.46107677	     -5.74835145	      4.53264879	      0.00000000	      0.00000000	     -0.10032766	     -9.28371124	     10.12658475	      0.00000000	      1.37709932	    -13.92555136	    -38.80893373	     -4.55404426	      0.73747532	      0.00000000	      0.00000000	     -0.07948307	     -8.53541012	     15.13125840	      0.00000000	    -13.14486637	     -4.90141428	     -3.12365779
      0.03000000	     -2.74344808	      5.15749051	     -4.16747978	      0.24054829	      0.90299699	     -1.19597034	      2.96053966	    -28.22660249	    -31.48783854	     -5.50000538	      4.47116875	      0.00000000	      0.00000000	     -0.09599320	     -9.43348097	     10.10930418	     -0.00000000	      1.34392380	    -14.24821194	    -38.81800785	     -4.71701636	      0.87875934	      0.00000000	      0.00000000	     -0.08232747	     -8.41313735	     15.23605720	      0.00000000	    -13.20901249	     -4.65912379	     -3.05932052
      0.03500000	     -2.74313976	      5.09097524	     -4.11885167	      0.24060502	      0.90307502	     -1.19610021	      2.85262758	    -28.11370301	    -31.51947800	     -5.33805054	      4.47851387	     -0.00000000	     -0.00000000	     -0.09316656	     -9.56917341	      9.91419877	     -0.00000000	      1.39152471	    -14.33640107	    -38.81794064	     -4.79971008	      0.85023517	      0.00000000	      0.00000000	     -0.08377074	     -8.40748407	     15.31393234	      0.00000000	    -13.20253441	     -4.50769280	     -3.05007017
      0.04000000	     -2.77008700	      5.21048033	     -4.27076348	      0.24068672	      0.90292600	     -1.19580872	      3.17590879	    -28.36411602	    -31.59893499	     -5.81556347	      4.44061006	      0.00000000	      0.00000000	     -0.10150073	     -9.18654595	     10.62702728	     -0.00000000	      1.27002456	    -14.14782216	    -38.83014988	     -4.54807479	      0.89753599	      0.00000000	      0.00000000	     -0.07937888	     -8.55981739	     14.99932789	      0.00000000	    -13.11798291	     -4.62310225	     -2.80692580
      0.04500000	     -2.77386406	      5.22764205	     -4.27430771	      0.24074727	      0.90291877	     -1.19583611	      3.17958910	    -28.39937916	    -31.61114883	     -5.82891078	      4.46240506	      0.00000000	      0.00000000	     -0.10173368	     -9.18810897	     10.63442155	      0.00000000	      1.26880532	    -14.12098304	    -38.83026717	     -4.53623713	      0.89263883	      0.00000000	      0.00000000	     -0.07917227	     -8.55100036	     14.99436098	      0.00000000	    -13.08861182	     -4.61364249	     -2.77841170
      0.05000000	     -2.78956360	      5.23498741	     -4.28004215	      0.24079913	      0.90290325	     -1.19584177	      3.19365226	    -28.40060971	    -31.59607744	     -5.81358300	      4.45749807	      0.00000000	      0.00000000	     -0.10146616	     -9.21526597	     10.62032169	      0.00000000	      1.28883271	    -14.11455911	    -38.83244623	     -4.55284073	      0.88804004	      0.00000000	      0.00000000	     -0.07946206	     -8.53496008	     14.99502496	      0.00000000	    -13.04999597	     -4.63361671	     -2.80170843
      0.05500000	     -2.79030445	      5.20223050	     -4.26610090	      0.24084632	      0.90292129	     -1.19587261	      3.17107212	    -28.35317000	    -31.61373924	     -5.78868430	      4.44709791	      0.00000000	      0.00000000	     -0.10103160	     -9.22689640	     10.60728836	     -0.00000000	      1.30955252	    -14.16500457	    -38.83227919	     -4.60937441	      0.89396090	      0.00000000	      0.00000000	     -0.08044876	     -8.49813254	     15.01460056	      0.00000000	    -13.03537041	     -4.63978819	     -2.90017662
      0.06000000	     -2.77535596	      5.16884702	     -4.18244502	      0.24088587	      0.90301455	     -1.19606745	      2.95261464	    -28.23308665	    -31.49613349	     -5.44014194	      4.48825359	      0.00000000	      0.00000000	     -0.09494839	     -9.50453131	     10.02968643	     -0.00000000	      1.38709618	    -14.22271751	    -38.82397317	     -4.75935369	      0.83143175	      0.00000000	      0.00000000	     -0.08306639	     -8.39460653	     15.23082058	     -0.00000000	    -13.05074299	     -4.39887950	     -2.70396755
      0.06500000	     -2.75673252	      5.18190461	     -4.25797422	      0.24095783	      0.90299707	     -1.19588668	      3.06937185	    -28.29076785	    -31.53363058	     -5.65979260	      4.45035963	     -0.00000000	     -0.00000000	     -0.09878202	     -9.33464987	     10.35643451	      0.00000000	      1.29447098	    -14.20176407	    -38.83686943	     -4.67771391	      0.88294661	      0.00000000	      0.00000000	     -0.08164151	     -8.43802951	     15.06770679	      0.00000000	    -13.03002428	     -4.63519979	     -2.94889581
      0.07000000	     -2.74198624	      5.18946324	     -4.15774904	      0.24099339	      0.90307085	     -1.19610582	      2.83681008	    -28.22628159	    -31.37576520	     -5.31119240	      4.51699368	      0.00000000	     -0.00000000	     -0.09269779	     -9.55957143	      9.74490778	     -0.00000000	      1.39525652	    -14.19915544	    -38.81525138	     -4.83403075	      0.80084786	     -0.00000000	     -0.00000000	     -0.08436975	     -8.34215540	     15.24665733	      0.00000000	    -13.05397617	     -4.73363005	     -3.21488048
      0.07500000	     -2.74741925	      5.19684494	     -4.29542397	      0.24110459	      0.90295222	     -1.19575084	      3.17213489	    -28.35579713	    -31.56973790	     -5.88125007	      4.41467104	      0.00000000	      0.00000000	     -0.10264718	     -9.17429434	     10.63460039	      0.00000000	      1.25408739	    -14.18133551	    -38.83433118	     -4.65636931	      0.89380016	      0.00000000	      0.00000000	     -0.08126898	     -8.44023236	     14.96818908	      0.00000000	    -12.97368579	     -4.59998710	     -2.78610805
      0.08000000	     -2.70502966	      5.20635083	     -4.29080224	      0.24119616	      0.90300368	     -1.19575904	      3.11353739	    -28.37452639	    -31.56079946	     -5.88346876	      4.43177556	     -0.00000000	     -0.00000000	     -0.10268590	     -9.16565070	     10.57930796	     -0.00000000	      1.20881606	    -14.15254952	    -38.82144442	     -4.64155841	      0.86966149	     -0.00000000	     -0.00000000	     -0.08101048	     -8.42969307	     14.97528820	     -0.00000000	    -12.98850411	     -4.61294116	     -2.80197140
      0.08500000	     -2.70762445	      5.35695710	     -4.18762170	      0.24124398	      0.90297247	     -1.19605170	      2.98940936	    -28.56945696	    -31.47828455	     -5.75871665	      4.56886771	      0.00000000	     -0.00000000	     -0.10050857	     -9.28568128	     10.13587990	      0.00000000	      1.32263626	    -13.94698910	    -38.79723675	     -4.71033291	      0.73905984	      0.00000000	      0.00000000	     -0.08221082	     -8.39025115	     15.14818307	     -0.00000000	    -12.95364476	     -4.92133746	     -3.19574194
      0.09000000	     -2.67518835	      5.20857954	     -4.25880142	      0.24133154	      0.90300729	     -1.19574721	      3.06163184	    -28.37680657	    -31.51340313	     -5.89501195	      4.42189049	     -0.00000000	      0.00000000	     -0.10288737	     -9.11506338	     10.54147987	     -0.00000000	      1.21216853	    -14.18712111	    -38.82186228	     -4.74846858	      0.89494821	      0.00000000	     -0.00000000	     -0.08287641	     -8.42825395	     15.00964712	     -0.00000000	    -12.97587173	     -4.65400284	     -2.86595768
      0.09500000	     -2.63994159	      5.15868516	     -4.22705784	      0.24140697	      0.90306535	     -1.19576041	      3.00757699	    -28.31625722	    -31.56184438	     -5.91383931	      4.40096277	      0.00000000	      0.00000000	     -0.10321597	     -9.13199427	     10.49321390	      0.00000000	      1.20483845	    -14.22923343	    -38.81254708	     -4.77049477	      0.84175587	      0.00000000	      0.00000000	     -0.08326084	     -8.36527371	     15.03912660	      0.00000000	    -12.98523298	     -4.63066141	     -2.96445152
      0.10000000	     -2.59879650	      5.18579946	     -4.23910369	      0.24150312	      0.90310344	     -1.19567428	      2.99363005	    -28.36902464	    -31.55429934	     -5.99120925	      4.40903869	     -0.00000000	     -0.00000000	     -0.10456633	     -9.05524242	     10.55232583	      0.00000000	      1.13991308	    -14.18814790	    -38.80305457	     -4.73572261	      0.84279017	     -0.00000000	     -0.00000000	     -0.08265395	     -8.38524551	     15.02874213	     -0.00000000	    -13.00079128	     -4.60879217	     -2.83642118
      0.10500000	     -2.58010683	      5.25258493	     -4.20645993	      0.24156729	      0.90308925	     -1.19575870	      2.95365805	    -28.46321743	    -31.50640371	     -5.99368502	      4.45275927	     -0.00000000	      0.00000000	     -0.10460954	     -9.09639182	     10.35467872	      0.00000000	      1.15150320	    -14.08457785	    -38.79640835	     -4.73140235	      0.77905616	      0.00000000	      0.00000000	     -0.08257855	     -8.40042671	     15.06772460	      0.00000000	    -12.99232871	     -4.73104351	     -2.96713101
